<svg width="16" height="17" viewBox="0 0 16 17" fill="none" xmlns="http://www.w3.org/2000/svg">
<path fill-rule="evenodd" clip-rule="evenodd" d="M7.75 2C7.05964 2 6.5 2.55964 6.5 3.25V3.5H9.5V3.25C9.5 2.55964 8.94036 2 8.25 2H7.75ZM11 3.5V3.25C11 1.73122 9.76878 0.5 8.25 0.5H7.75C6.23122 0.5 5 1.73122 5 3.25V3.5H2.7592C2.75368 3.49994 2.74814 3.49994 2.74259 3.5H1C0.585786 3.5 0.25 3.83579 0.25 4.25C0.25 4.66421 0.585786 5 1 5H2.06243L2.84402 13.9882C2.96759 15.4093 4.15723 16.5 5.58368 16.5H10.4164C11.8429 16.5 13.0325 15.4093 13.1561 13.9882L13.9377 5H15C15.4142 5 15.75 4.66421 15.75 4.25C15.75 3.83579 15.4142 3.5 15 3.5H13.2575C13.2519 3.49994 13.2464 3.49994 13.2409 3.5H11ZM12.432 5H3.56809L4.33838 13.8583C4.39455 14.5042 4.93529 15 5.58368 15H10.4164C11.0648 15 11.6055 14.5042 11.6617 13.8583L12.432 5Z" fill="#889096"/>
</svg>
